<?xml version="1.0" encoding="utf-8"?>
<!-- Generator: Adobe Illustrator 16.0.4, SVG Export Plug-In . SVG Version: 6.00 Build 0)  -->
<!DOCTYPE svg PUBLIC "-//W3C//DTD SVG 1.1//EN" "http://www.w3.org/Graphics/SVG/1.1/DTD/svg11.dtd">
<svg version="1.1" id="Layer_1" xmlns="http://www.w3.org/2000/svg" xmlns:xlink="http://www.w3.org/1999/xlink" x="0px" y="0px"
	 width="36px" height="30px" viewBox="0 0 112 93.333" enable-background="new 0 0 112 93.333" xml:space="preserve">
<path d="M83.748,56.99c-1.354,8.844-8.582,16.071-17.426,17.426c-14.191,2.174-26.24-9.875-24.065-24.067
	c1.353-8.843,8.582-16.072,17.424-17.425C73.869,30.749,85.918,42.792,83.748,56.99z M112,22.516v62.3
	c0,4.704-3.812,8.518-8.512,8.518H8.516C3.813,93.333,0,89.521,0,84.821V22.516c0-4.704,3.812-8.517,8.517-8.517h0.817v-1.895
	c0-1.531,1.241-2.772,2.772-2.772h13.123c1.53,0,2.771,1.241,2.771,2.772v1.895h7.229l5.717-11.816
	c0.645-1.334,1.998-2.184,3.478-2.184H81.58c1.479,0,2.832,0.85,3.471,2.184l5.717,11.816h12.717C108.188,14,112,17.812,112,22.516z
	 M24.5,23.333c0-3.22-2.613-5.833-5.833-5.833s-5.833,2.613-5.833,5.833s2.613,5.833,5.833,5.833S24.5,26.553,24.5,23.333z
	 M56.061,24.103c-11.152,2.473-20.149,11.471-22.623,22.624c-4.91,22.129,14.373,41.407,36.501,36.502
	c11.154-2.474,20.15-11.472,22.625-22.624C97.469,38.477,78.189,19.198,56.061,24.103z"/>
</svg>
