<?xml version="1.0" encoding="utf-8"?>
<!-- Generator: Adobe Illustrator 17.0.0, SVG Export Plug-In . SVG Version: 6.00 Build 0)  -->
<!DOCTYPE svg PUBLIC "-//W3C//DTD SVG 1.1//EN" "http://www.w3.org/Graphics/SVG/1.1/DTD/svg11.dtd">
<svg version="1.1" id="Capa_1" xmlns="http://www.w3.org/2000/svg" xmlns:xlink="http://www.w3.org/1999/xlink" x="0px" y="0px"
	 width="72px" height="72px" viewBox="0 0 64 64" enable-background="new 0 0 64 64" xml:space="preserve">
<g>
	<rect x="10.75" y="10.75" width="8.75" height="8.75"/>
	<rect x="10.75" y="44.75" width="8.75" height="8.75"/>
	<path d="M3.75,33.875v3.875v2.5V60.5H26.5V48.25h5.25v5.625v0.375v6h6.375V55h5v5.25H49.5v-6h4.625v6H60.5v-6.375h-6v-6h-6.375v6
		h-4.188V41.5h-5.812v-5.25h6v6H50.5v-4h3.625v2.625v3.375v3H60.5v-3v-3.375v-3h-4V32.25h4V26.5v-0.625V3.75H37.75v0.042h-6v6.958
		H26.5v-7H3.75v20.125V26.5v3.75h4v3.625H3.75z M22.5,56.5H7.75V41.75H22.5V56.5z M32.125,42.25h5.438v5.625h-5.438V42.25z
		 M32.125,30.25h5.062v5.625h-5.062V30.25z M54.125,31.875h-3.438v-2H38.125V26.5h16V31.875z M41.75,7.75H56.5V22.5H41.75V7.75z
		 M37.75,23.875h-5.625V11.417h5.625V23.875z M31.75,29.875h-5.234V24.25h5.234V29.875z M7.75,7.75H22.5V22.5H7.75V7.75z
		 M20.141,26.5v3.75h5.609v6h6v5.625H26.5V37.75H10.125v-1.5h3.625h0.375h6v-6.375h-6H13.75h-3.625V26.5H20.141z"/>
	<rect x="44.75" y="10.75" width="8.75" height="8.75"/>
</g>
</svg>
