<?xml version="1.0" encoding="utf-8"?>
<!-- Generator: Adobe Illustrator 15.0.0, SVG Export Plug-In . SVG Version: 6.00 Build 0)  -->
<!DOCTYPE svg PUBLIC "-//W3C//DTD SVG 1.1//EN" "http://www.w3.org/Graphics/SVG/1.1/DTD/svg11.dtd">
<svg version="1.1" id="Layer_1" xmlns="http://www.w3.org/2000/svg" xmlns:xlink="http://www.w3.org/1999/xlink" x="0px" y="0px"
	 width="36px" height="36px" viewBox="0 0 64 64" enable-background="new 0 0 64 64" xml:space="preserve">
<g>
	<g>
		<path fill="#231F20" d="M24.493,32.832c0-0.949,0.183-1.885,0.543-2.774l0.33-0.799l-0.795-0.357
			c-0.253-0.112-0.49-0.249-0.704-0.405l-0.914-0.669l-0.441,1.046c-0.541,1.282-0.814,2.615-0.814,3.959
			c0,2.897,1.188,5.584,3.349,7.565l0.601,0.548l0.928-0.83c0.141-0.122,0.282-0.245,0.464-0.412l0.672-0.674l-0.706-0.627
			C25.408,36.972,24.493,34.942,24.493,32.832z"/>
	</g>
	<g>
		<path fill="#231F20" d="M40.904,27.69l-0.44-0.75l-0.761,0.419c-0.265,0.145-0.529,0.267-0.794,0.364L37.9,28.102l0.553,0.92
			c0.689,1.155,1.054,2.472,1.054,3.811c0,1.281-0.331,2.546-0.957,3.657l-0.326,0.571l1.892,2.215l0.657-1.062
			c1-1.624,1.529-3.485,1.529-5.382C42.302,31.038,41.818,29.26,40.904,27.69z"/>
	</g>
	<g>
		<path fill="#231F20" d="M18.714,32.832c0-2.645,0.789-5.206,2.285-7.411l0.281-0.425l-1.395-2.774l-0.859,1.181
			c-2.033,2.771-3.108,6.032-3.108,9.43c0,4.246,1.659,8.257,4.672,11.298l0.569,0.567l2.18-1.779l-0.703-0.697
			C20.107,39.703,18.714,36.369,18.714,32.832z"/>
	</g>
	<g>
		<path fill="#231F20" d="M45.066,23.52l-0.72-1.006l-0.733,1c-0.204,0.28-0.41,0.555-0.624,0.823l-0.404,0.517l0.369,0.543
			c1.527,2.219,2.331,4.79,2.331,7.436c0,3.04-1.01,5.909-2.927,8.297l-0.428,0.534l0.626,0.845c0.087,0.097,0.181,0.19,0.315,0.326
			l0.896,0.959l0.651-0.796c2.396-2.92,3.663-6.436,3.663-10.165C48.083,29.495,47.039,26.275,45.066,23.52z"/>
	</g>
	<g>
		<path fill="#231F20" d="M48.687,17.99l-0.743-0.841l-0.657,0.914c-0.201,0.282-0.402,0.573-0.605,0.875l-0.38,0.569l0.448,0.518
			c3.108,3.562,4.819,8.11,4.819,12.807c0,4.626-1.683,9.13-4.735,12.688l-0.572,0.671l0.664,0.586
			c0.168,0.147,0.339,0.295,0.502,0.429l0.952,0.811l0.585-0.674c3.479-4.064,5.396-9.218,5.396-14.511
			C54.36,27.362,52.345,22.09,48.687,17.99z"/>
	</g>
	<g>
		<path fill="#231F20" d="M12.435,32.832c0-4.818,1.81-9.465,5.098-13.086l0.49-0.546l-0.438-0.588
			c-0.201-0.269-0.405-0.532-0.655-0.854l-0.649-0.826l-0.714,0.771c-3.822,4.146-5.928,9.519-5.928,15.129
			c0,5.591,2.093,10.95,5.892,15.091l0.541,0.587l2.291-1.674l-0.688-0.729C14.296,42.473,12.435,37.76,12.435,32.832z"/>
	</g>
	<g>
		<path fill="#231F20" d="M52.999,13.381l-0.594-0.635l-0.651,0.573c-0.173,0.15-0.344,0.308-0.507,0.462l-0.919,0.839l0.611,0.663
			c4.452,4.798,6.906,11.031,6.906,17.549c0,6.111-2.187,12.046-6.158,16.715l-0.593,0.7l0.715,0.579
			c0.227,0.181,0.448,0.371,0.67,0.563l0.754,0.651l0.585-0.684c4.398-5.172,6.822-11.75,6.822-18.524
			C60.641,25.607,57.927,18.699,52.999,13.381z"/>
	</g>
	<g>
		<path fill="#231F20" d="M6.154,32.832c0-6.861,2.682-13.333,7.549-18.221l0.506-0.506l-0.547-0.863
			c-0.125-0.196-0.252-0.395-0.373-0.596l-0.588-0.977l-0.808,0.802C6.39,17.904,3.359,25.134,3.359,32.832
			c0,6.932,2.53,13.631,7.125,18.86l0.558,0.638l2.206-1.725l-0.627-0.711C8.45,45.166,6.154,39.107,6.154,32.832z"/>
	</g>
	<g>
		<path fill="#231F20" d="M32,29.312c-1.941,0-3.52,1.578-3.52,3.52c0,1.94,1.579,3.519,3.52,3.519c1.94,0,3.519-1.578,3.519-3.519
			C35.519,30.89,33.939,29.312,32,29.312z"/>
	</g>
</g>
</svg>
